HIERARCHY
ROOT Hips
{
	OFFSET -14.64140 90.27770 -84.91600
	CHANNELS 6 Xposition Yposition Zposition Zrotation Xrotation Yrotation
	JOINT Spine
	{
		OFFSET 0.00000 13.20850 -1.60436
		CHANNELS 3 Zrotation Xrotation Yrotation
		JOINT Spine1
		{
			OFFSET 0.00000 8.61716 0.00000
			CHANNELS 3 Zrotation Xrotation Yrotation
			JOINT Spine2
			{
				OFFSET 0.00000 8.61717 0.00000
				CHANNELS 3 Zrotation Xrotation Yrotation
				JOINT Spine3
				{
					OFFSET 0.00000 8.61717 0.00000
					CHANNELS 3 Zrotation Xrotation Yrotation
					JOINT Neck
					{
						OFFSET 0.00000 11.07920 1.10792
						CHANNELS 3 Zrotation Xrotation Yrotation
						JOINT Neck1
						{
							OFFSET 0.00000 7.08032 0.00000
							CHANNELS 3 Zrotation Xrotation Yrotation
							JOINT Head
							{
								OFFSET 0.00000 7.08031 0.00000
								CHANNELS 3 Zrotation Xrotation Yrotation
								End site
								{
									OFFSET 0.00000 0.00000 0.00000
								}
							}
						}
					}
					JOINT RightShoulder
					{
						OFFSET -0.01000 7.91373 5.19711
						CHANNELS 3 Zrotation Xrotation Yrotation
						JOINT RightArm
						{
							OFFSET -18.41580 0.00000 0.00000
							CHANNELS 3 Zrotation Xrotation Yrotation
							JOINT RightForeArm
							{
								OFFSET -29.11090 0.00000 0.00000
								CHANNELS 3 Zrotation Xrotation Yrotation
								JOINT RightHand
								{
									OFFSET -24.65040 0.00000 0.00000
									CHANNELS 3 Zrotation Xrotation Yrotation
									JOINT RightHandThumb1
									{
										OFFSET -5.35114 -0.85590 3.97906
										CHANNELS 3 Zrotation Xrotation Yrotation
										JOINT RightHandThumb2
										{
											OFFSET -4.52789 0.00000 0.00000
											CHANNELS 3 Zrotation Xrotation Yrotation
											JOINT RightHandThumb3
											{
												OFFSET -2.46976 0.00000 0.00000
												CHANNELS 3 Zrotation Xrotation Yrotation
												End site
												{
													OFFSET 0.00000 0.00000 0.00000
												}
											}
										}
									}
									JOINT RightHandIndex1
									{
										OFFSET -14.26970 0.00000 2.88139
										CHANNELS 3 Zrotation Xrotation Yrotation
										JOINT RightHandIndex2
										{
											OFFSET -5.48836 0.00000 0.00000
											CHANNELS 3 Zrotation Xrotation Yrotation
											JOINT RightHandIndex3
											{
												OFFSET -3.01859 0.00000 0.00000
												CHANNELS 3 Zrotation Xrotation Yrotation
												End site
												{
													OFFSET 0.00000 0.00000 0.00000
												}
											}
										}
									}
									JOINT RightHandMiddle1
									{
										OFFSET -14.26970 0.00000 -0.09147
										CHANNELS 3 Zrotation Xrotation Yrotation
										JOINT RightHandMiddle2
										{
											OFFSET -6.17441 0.00000 0.00000
											CHANNELS 3 Zrotation Xrotation Yrotation
											JOINT RightHandMiddle3
											{
												OFFSET -3.56743 0.00000 0.00000
												CHANNELS 3 Zrotation Xrotation Yrotation
												End site
												{
													OFFSET 0.00000 0.00000 0.00000
												}
											}
										}
									}
									JOINT RightHandRing1
									{
										OFFSET -12.69180 0.00000 -3.06433
										CHANNELS 3 Zrotation Xrotation Yrotation
										JOINT RightHandRing2
										{
											OFFSET -5.62556 0.00000 0.00000
											CHANNELS 3 Zrotation Xrotation Yrotation
											JOINT RightHandRing3
											{
												OFFSET -3.56744 0.00000 0.00000
												CHANNELS 3 Zrotation Xrotation Yrotation
												End site
												{
													OFFSET 0.00000 0.00000 0.00000
												}
											}
										}
									}
									JOINT RightHandPinky1
									{
										OFFSET -11.11390 0.00000 -6.03719
										CHANNELS 3 Zrotation Xrotation Yrotation
										JOINT RightHandPinky2
										{
											OFFSET -4.52789 0.00000 0.00000
											CHANNELS 3 Zrotation Xrotation Yrotation
											JOINT RightHandPinky3
											{
												OFFSET -2.46976 0.00000 0.00000
												CHANNELS 3 Zrotation Xrotation Yrotation
												End site
												{
													OFFSET 0.00000 0.00000 0.00000
												}
											}
										}
									}
								}
							}
						}
					}
					JOINT LeftShoulder
					{
						OFFSET 0.01000 7.91373 5.19711
						CHANNELS 3 Zrotation Xrotation Yrotation
						JOINT LeftArm
						{
							OFFSET 18.41580 0.00000 0.00000
							CHANNELS 3 Zrotation Xrotation Yrotation
							JOINT LeftForeArm
							{
								OFFSET 29.11090 0.00000 0.00000
								CHANNELS 3 Zrotation Xrotation Yrotation
								JOINT LeftHand
								{
									OFFSET 24.65040 0.00000 0.00000
									CHANNELS 3 Zrotation Xrotation Yrotation
									JOINT LeftHandThumb1
									{
										OFFSET 5.35114 -0.85590 3.97906
										CHANNELS 3 Zrotation Xrotation Yrotation
										JOINT LeftHandThumb2
										{
											OFFSET 4.52789 0.00000 0.00000
											CHANNELS 3 Zrotation Xrotation Yrotation
											JOINT LeftHandThumb3
											{
												OFFSET 2.46977 0.00000 0.00000
												CHANNELS 3 Zrotation Xrotation Yrotation
												End site
												{
													OFFSET 0.00000 0.00000 0.00000
												}
											}
										}
									}
									JOINT LeftHandIndex1
									{
										OFFSET 14.26970 0.00000 2.88139
										CHANNELS 3 Zrotation Xrotation Yrotation
										JOINT LeftHandIndex2
										{
											OFFSET 5.48836 0.00000 0.00000
											CHANNELS 3 Zrotation Xrotation Yrotation
											JOINT LeftHandIndex3
											{
												OFFSET 3.01859 0.00000 0.00000
												CHANNELS 3 Zrotation Xrotation Yrotation
												End site
												{
													OFFSET 0.00000 0.00000 0.00000
												}
											}
										}
									}
									JOINT LeftHandMiddle1
									{
										OFFSET 14.26970 0.00000 -0.09147
										CHANNELS 3 Zrotation Xrotation Yrotation
										JOINT LeftHandMiddle2
										{
											OFFSET 6.17440 0.00000 0.00000
											CHANNELS 3 Zrotation Xrotation Yrotation
											JOINT LeftHandMiddle3
											{
												OFFSET 3.56744 0.00000 0.00000
												CHANNELS 3 Zrotation Xrotation Yrotation
												End site
												{
													OFFSET 0.00000 0.00000 0.00000
												}
											}
										}
									}
									JOINT LeftHandRing1
									{
										OFFSET 12.69180 0.00000 -3.06433
										CHANNELS 3 Zrotation Xrotation Yrotation
										JOINT LeftHandRing2
										{
											OFFSET 5.62556 0.00000 0.00000
											CHANNELS 3 Zrotation Xrotation Yrotation
											JOINT LeftHandRing3
											{
												OFFSET 3.56744 0.00000 0.00000
												CHANNELS 3 Zrotation Xrotation Yrotation
												End site
												{
													OFFSET 0.00000 0.00000 0.00000
												}
											}
										}
									}
									JOINT LeftHandPinky1
									{
										OFFSET 11.11390 0.00000 -6.03719
										CHANNELS 3 Zrotation Xrotation Yrotation
										JOINT LeftHandPinky2
										{
											OFFSET 4.52789 0.00000 0.00000
											CHANNELS 3 Zrotation Xrotation Yrotation
											JOINT LeftHandPinky3
											{
												OFFSET 2.46976 0.00000 0.00000
												CHANNELS 3 Zrotation Xrotation Yrotation
												End site
												{
													OFFSET 0.00000 0.00000 0.00000
												}
											}
										}
									}
								}
							}
						}
					}
					JOINT pCube4
					{
						OFFSET 0.00000 10.91090 1.10792
						CHANNELS 3 Zrotation Xrotation Yrotation
						End site
						{
							OFFSET 0.00000 0.00000 0.00000
						}
					}
				}
			}
		}
	}
	JOINT RightUpLeg
	{
		OFFSET -9.98441 0.00000 0.00000
		CHANNELS 3 Zrotation Xrotation Yrotation
		JOINT RightLeg
		{
			OFFSET 0.00000 -42.11790 0.00000
			CHANNELS 3 Zrotation Xrotation Yrotation
			JOINT RightFoot
			{
				OFFSET 0.00000 -45.00020 -0.00001
				CHANNELS 3 Zrotation Xrotation Yrotation
				JOINT RightForeFoot
				{
					OFFSET 0.00000 -3.74820 0.00000
					CHANNELS 3 Zrotation Xrotation Yrotation
					JOINT RightToeBase
					{
						OFFSET 0.00000 0.06325 14.43120
						CHANNELS 3 Zrotation Xrotation Yrotation
						End site
						{
							OFFSET 0.00000 0.00000 0.00000
						}
					}
				}
			}
		}
	}
	JOINT LeftUpLeg
	{
		OFFSET 9.98441 0.00000 0.00000
		CHANNELS 3 Zrotation Xrotation Yrotation
		JOINT LeftLeg
		{
			OFFSET 0.00000 -42.11800 0.00000
			CHANNELS 3 Zrotation Xrotation Yrotation
			JOINT LeftFoot
			{
				OFFSET 0.00000 -45.00070 0.00000
				CHANNELS 3 Zrotation Xrotation Yrotation
				JOINT LeftForeFoot
				{
					OFFSET 0.00000 -3.74824 0.00000
					CHANNELS 3 Zrotation Xrotation Yrotation
					JOINT LeftToeBase
					{
						OFFSET 0.00000 0.06325 14.43110
						CHANNELS 3 Zrotation Xrotation Yrotation
						End site
						{
							OFFSET 0.00000 0.00000 0.00000
						}
					}
				}
			}
		}
	}
}
MOTION
Frames: 4
Frame Time: 0.050000
-0.04448283951224591 0.027554221657445678 0.006379297023690714 -0.01177549282438787 0.001600459550997268 0.0350809101352034 0.20755711613839037 3.580021063240525 -1.3103953835425097 -1.0486951702644582 3.544800500379276 0.49695456648678954 -1.0674213537557806 -1.0550702399682033 0.8796930562702285 -1.3339664072750006 -0.39288322680398685 -0.44047858617316676 -0.5195552985628173 11.539162095459591 1.3336782017812114 0.0550852465540287 -0.38308504048238506 1.4028156216232464 -0.26010106567813024 -15.714724898519963 0.13346894497165804 -9.07161134092061 3.3363876011500837 -14.595807920037634 62.81993692442641 -19.61206723852014 27.54132615327995 20.285018474960214 -4.616127433949897 80.92878102062637 16.404725739994266 -0.523572341491921 -4.69254423429445 4.4946894241849185 -0.07802498694482093 -1.6002324212442702 0.002447188963310405 0.04009645949752304 -56.25779181723572 -0.028564109559415567 0.009032045789000026 -56.25895779779277 -38.78986547502017 -0.0068248909700521455 -0.015975978950750626 0.03222776724001543 0.011862031926217528 -0.03511304959499581 0.007533233156651435 -0.020350922188241867 -0.020867923460352766 -36.646146029087404 -0.03493914491678971 -0.012657274836627885 0.013447944214105655 -0.023720866725214822 -0.042726168307503753 -0.02177015280421877 0.031952441227548284 0.042663977606251166 -19.785972553156476 -0.03133583823814114 -0.04507978522648678 0.01569409914296905 0.03115812416405993 -0.016747878262943577 0.005874859705539845 -0.04178193602408153 -0.025155230343761197 24.055745970007106 0.03985044746260416 0.02612771022268073 28.910705503588503 0.014194115367986105 -0.04534811824410145 28.90654344105054 0.04211070626323089 0.002689525066819519 7.452199058667664 1.8404575189757348 13.125827726025038 -62.296058652873434 16.339002762515282 -18.339883506547377 8.015701706038413 -8.460492615516465 -50.61275040024174 -17.632048601235596 -0.5701276016420673 3.5053481134074365 -0.49624652324491364 0.06379867530316269 -8.142207722070374 -0.03443266122574913 0.023490937911864587 44.544580210856275 -0.04266068962824847 0.04721545439324154 44.550319651483896 12.433274638863244 0.018837322259286873 0.0402399060934515 -0.017493755338304957 -0.03229091192812466 0.016310196249004708 0.020508161613405962 0.03708614667761157 -0.0024660711167219327 11.073074774499654 -0.04391860053247566 0.04645626130409022 0.0324479383833475 -0.04140219869521043 0.011153562199022632 0.01676468951219999 0.03676986081204092 0.026624014675485686 4.754136381195629 0.028729451632030785 0.010225813580041638 -0.01318625454255434 -0.010701814336079744 -0.010302143812017992 0.015446154048280173 -0.012063503321709574 0.021033991244389316 -5.617841369103603 0.02324612084339833 -0.04269774752719919 -6.677087550873517 -0.047247201178574144 -0.029122017605023708 -6.721660707202017 -0.049838432471354055 -0.03530788292568985 -0.014353516427969391 0.0004301064816865395 0.048660679445243285 8.012117565561537 3.4547682141729448 -19.221998281392803 -0.03563366939383236 10.381655214950172 0.01750899843010264 -5.61825665786189 -15.647284890902217 3.187468242768203 -0.025803381530197997 -0.04376227393017503 0.026308082473482586 0.038823179718171674 4.722864689476506 -0.03347875459935233 12.436293484709097 -8.201608597634843 6.849681664304686 0.019978985739581893 46.34045236188579 -0.011381905402502708 -4.283740565041383 -14.792564819403232 -3.808744499309587 0.00459027285413376 0.018849637896855957 0.01955043309353336 -0.00045256325200701585 -10.715460245132569 0.04797539114549493 
-0.007792064074552768 0.027472510346298763 0.027226624697457697 -0.038408162200207915 0.011541735945112297 -0.03633695531326393 0.47454321194315313 3.5699941561464077 -1.3633065111226204 -1.033888736838085 3.493828592844548 0.4690271348929315 -1.0668038304889147 -1.0240034950326662 0.7727457727137981 -1.1796860499109787 -0.4245111558692039 -0.42153950066448564 -0.2755557764515425 11.31785536354016 0.5272600934521803 0.06678112478855826 -0.46341805996935487 -0.13303051801140026 0.024935644829017084 -15.92705603600758 -0.010937919828690558 -9.333673372417001 3.416915114815008 -14.90495984584407 63.29259953943971 -21.587477397775586 27.413566013195705 19.312886653253937 -3.9685198299932036 80.65087343428438 15.293509497343159 -0.46472574938023553 -4.315958990218824 4.530077568629335 -0.13442502442387652 -1.6410361363963941 -0.04784440710488157 -0.04470931418030238 -56.255818047383954 0.04580633597558085 -0.02264512967799724 -56.2087090470663 -38.72678912175644 0.04592551884805919 0.037426670063340696 0.045796517628072304 -0.027821711539015186 -0.0420792854424756 0.03302588699216591 -0.012158578320175953 0.03585746975748852 -36.6489477905694 -0.025088250541298776 0.026061627729711587 -0.015269129751542158 0.03423133996723475 0.043604746853999767 0.005486138129353711 0.015197316782391931 -0.014799566014762133 -19.791275235898038 0.005464442443859899 0.03994824402869031 0.03252694107511543 -0.008433613380644415 0.041896879790869236 -0.0018990775156004177 -0.02395280816302232 0.010299428419261184 24.06835476899524 0.043866633596215066 0.015571732682501071 28.854737888612135 -0.01492182321003008 0.038818954071967 28.899815609438658 -0.026555463636992578 -0.03185137455584155 7.132511804998544 1.873931135863685 13.077935361201286 -62.87490962261584 16.87517471762729 -17.26182254479886 6.865935267399373 -7.628236130387832 -50.46595934995864 -17.2943834397721 -1.1735533178652686 3.7701164943977687 -0.5160679199697715 0.032715902811228624 -8.122075396710922 -0.04697373209622687 -0.015260241609096748 44.56147753152809 0.000808958950220034 0.049543834242549455 44.576819834805775 12.471395063471917 -0.002727294218091154 -0.0030294895604778107 0.030788809276666763 0.022508902277715064 0.0025124589431397394 -0.03773305536011756 0.007359988155989343 0.01040655956295479 11.118763124246179 0.010450854517604274 0.017290515981275643 -0.04992340614496618 0.002634672674732218 0.022333259403133104 0.036275742282304645 0.0477115948106813 -0.011319627070715337 4.786711206490773 -0.015012925611704692 0.02970032550316092 -0.009980935462172763 -0.028422280937113676 0.029017152122904122 -0.03842394739310437 0.031790684704569416 0.045023444036166885 -5.551460307943587 0.023722869733277883 0.02466639597840435 -6.684809456676869 -0.010908361150555105 -0.028898133115339706 -6.709113070078071 -0.0004897647781382795 0.019974047718564897 -0.02115523473432978 -0.033050872521154566 -0.0015021936494937858 8.065469150296712 3.4673288891225016 -19.187220465343653 0.04992700296092444 10.415915623568287 -0.010296409761916914 -5.666413369480675 -15.706425363170958 3.20987189236761 0.0056379448308482745 0.0052968236175230604 0.019862355131929174 0.04589524510155498 4.685936536132987 -0.015251349533554937 12.492070594299827 -8.25309843570319 6.842520979883729 -0.04435971065662845 46.42618608960439 -0.031272024732435205 -4.309457637014605 -14.737698281275375 -3.8493393130427065 0.016932406436615723 0.024707123290681712 -0.006984773243113681 -0.002950219770856356 -10.767903686202944 0.0006243959403055536 
0.00041771123255993466 0.011235848454981092 -0.049124135273938274 -0.023384358879551474 0.029763882064971804 -0.031887009697799736 0.5671394306675737 3.6992208761967214 -1.4920766161555419 -1.0425574923788488 3.536608127388215 0.45279136313441803 -1.0967641280652929 -0.8518322212298446 0.5530711628259452 -0.9837569388090626 -0.32667885606997576 -0.4339425108873779 -0.15029560147863757 11.088267970980242 0.06269103417092024 0.06660755551015289 -0.6835755561121016 -1.0907877322802937 0.251630643326686 -16.208476575061912 -0.07498940286493633 -9.113922918042604 3.29109114606588 -15.29040187199627 64.41994620941112 -22.315077888239994 25.123910575747605 19.519231257616912 -3.0404482841261085 80.09615754067372 14.563074557627944 -0.5068417439965729 -4.121172220112098 4.51877599235681 -0.14993197573910516 -1.6375974567075544 0.012267605458379266 0.037243801265844846 -56.25795014372247 -0.03208595804443811 -0.04509269535584928 -56.24767418455417 -38.75746499831969 0.009309503452164612 0.04368761339014259 -0.02989703746235321 -0.02514616761979052 -0.011050140898575398 -0.0407214468576627 -0.02378978777523094 -0.017682688398929513 -36.66551361386098 0.04361618344212933 -0.016107589265808735 -0.0033924743471624636 -0.0200326694335791 0.004567805076041978 0.006700979045531969 -0.017335980153333513 0.024066908252378266 -19.787405731436344 0.0257027548078907 0.048601194229290316 -0.01880496705355743 -0.03650443560623908 0.038587846205180486 -0.009388404977313879 -0.038609200858539666 -0.02325288091525549 24.084654044212087 -0.005318982125175464 -0.0064468368003205295 28.825304758601714 0.0047601187913702565 -0.034183088551210127 28.87865821071889 0.02587093246859001 0.03036289156243013 6.740996933151332 1.7809830275678136 12.964572762194862 -63.46030518506371 17.761596768837453 -16.325158750504443 5.4151139451993915 -6.455297585909605 -51.05592726918505 -16.763566587627473 -1.6851476208945744 3.9414200859052624 -0.43843212805359844 0.09104395891110154 -8.098639887374285 -0.03553151059208691 0.015643684180353206 44.61172400380795 0.021582674745348997 0.01046670656206487 44.573469326653694 12.422430899092168 0.04422014419877747 0.042758461183270376 0.020845396356794357 0.009617139021474083 0.00907996987797014 0.01649072066465878 -0.005845502164065812 -0.01548218137364936 11.138138387867361 -0.04281263169183279 -0.033140906333222246 -0.03247943427198474 0.002082170281753613 -0.04864749015184874 -0.049994504270452655 0.0029850274548371336 0.024199907917625163 4.794392634397528 -0.03184095161879135 -0.046649962522878535 0.008950835984348444 0.012735847542468549 -0.04751663591143804 0.035413824112269725 0.01049990193532385 -0.045025472150561276 -5.627168959870381 -0.02718931703912725 0.03300497539236119 -6.711563189424593 0.006445137567133587 -0.025537482334564893 -6.680731829395787 0.007898942294606776 0.04124880542869534 0.0016268386465231946 -0.0012485202475056108 0.035638267341733657 8.0771522826633 3.487034021115304 -19.186815309855216 -0.002435354876430759 10.416389191282937 0.013802994304687509 -5.642994857826396 -15.629916209531986 3.1427616520807127 0.006722811256876052 0.04468629627352682 0.0372726255259455 0.011775989402361213 4.708448737199316 0.005536247819408479 12.456630091795285 -8.20475995716964 6.888430129684954 -0.03369812293394699 46.344070928002374 0.007978830711404974 -4.288464548146874 -14.795029421760944 -3.8336554286240707 0.008045272162597868 0.001836200044207626 0.0477796624996551 0.004207305857152723 -10.756399022464969 0.04041424209182193 
0.03606826675165416 -0.022275162527421306 0.02829019458931566 0.017580488496205637 0.007319148962808223 -0.03647028789270747 0.5561170387591052 4.139905853600896 -1.4363159098645717 -1.0680485897119003 3.5694557390102952 0.4908503413513525 -1.0514877866096728 -0.7388998749583651 0.33915616042528024 -0.7313253512121576 -0.28260125475697034 -0.45828496407207325 -0.013937255257954417 10.856274821764538 -0.24093324500921767 0.08615621773093415 -0.9909796429590928 -1.615206661206518 0.3036006461392293 -16.634062621123174 -0.1636007239768332 -8.598027833038627 3.1288973739497323 -15.535275323750371 65.60193161688613 -22.712259391253184 22.096560323488976 20.396647826933098 -2.1535190240483746 78.89689126978956 13.806601999793125 -0.4703073889289289 -3.9463945564105316 4.532106770583021 -0.10415070294906252 -1.591417595995586 -0.0030475448823209135 0.006269739480538082 -56.229803511492776 -0.029422826039370787 -0.032847364271361194 -56.257672888742405 -38.77628159199122 0.004432676716583398 0.00035643144035530906 0.03172475007294783 -0.0006651933345438311 0.02436566011603201 0.016647895834564327 -0.023995856915941118 0.00619932219878528 -36.719544781210686 -0.04007929384903078 0.01534975114359979 0.01777742253215312 -0.006249873868521211 0.02592183537398147 -0.03075872860622699 0.04878617014593371 -0.011609119723176521 -19.76254766313346 0.004420961211078665 0.03644054368051609 -0.0009655284112946247 0.025011076517323826 -0.038503730101212295 -0.008874484889321957 0.013237567699320987 0.005373757874761827 24.004984025068957 0.02314822234580698 0.02724532550995151 28.845917210580076 0.03995866292637092 -0.03208921050635733 28.906165415863953 -0.027198672532508492 0.03183006834367133 6.262775970172514 1.6899316852991557 12.942194368858752 -63.793325945988215 18.76046434405771 -15.473621124443024 3.6416510687529553 -5.270214145809226 -52.48986211157067 -16.032850827035293 -2.0839977017615863 4.091830857413428 -0.43757272261381336 0.05082515541296258 -8.105341785177254 -0.03661654842763745 0.025628642676003895 44.5218239646307 0.009887461032477068 -0.04739699530006547 44.54535167261913 12.492609478897743 -0.02392729888632135 -0.0030633205083876987 0.017072651804092856 -0.03576204313755997 -0.017322085220708456 0.01869884305515236 0.02755453308012199 -0.04943325376994063 11.059338970613773 -0.004870302244133956 -0.007305991583568286 0.006456304973599808 0.0034762394185653 0.009793935472820358 -0.048751213603462226 0.04411634155984313 0.04489426303630192 4.7866621618845295 -0.03256548638972166 0.025274436278321672 0.002313653553953417 -0.009193194566391158 -0.003276830498626962 0.04653902712529931 0.01749474581014284 0.02029206364889413 -5.600716079696375 -0.04252878855543042 -0.003939330114812633 -6.703036190298621 -0.011442249067430885 0.03097470418594038 -6.685414816824538 -0.016538137190473944 0.002049550630793628 0.00064648520045188 0.010105762689233647 -0.015571934213716195 8.030497675031613 3.5300566202981343 -19.191423976113633 0.028566753967186075 10.398251904052021 0.06017719331342847 -5.654634831733852 -15.69792154996957 3.237322659925821 0.0010561226463474288 -0.032734563996809504 -0.00929547556205833 0.010554187796221096 4.724278742927622 0.0020468209997769543 12.420247283161558 -8.284037326914902 6.840723992001986 0.0034927896942285345 46.37931721750969 -0.02919959822876864 -4.3282449039599555 -14.708090670717988 -3.8611790593252 -0.025516300658031038 -0.019399744340819265 -0.010631750150054887 0.010754651352719483 -10.784462479949335 -0.022896319333367658 
